<?xml version="1.0" encoding="iso-8859-1"?>
<!-- Generator: Adobe Illustrator 19.0.0, SVG Export Plug-In . SVG Version: 6.00 Build 0)  -->
<svg version="1.1" id="Layer_1" xmlns="http://www.w3.org/2000/svg" xmlns:xlink="http://www.w3.org/1999/xlink" x="0px" y="0px"
	 viewBox="0 0 400.48 400.48" style="enable-background:new 0 0 400.48 400.48;" xml:space="preserve">
<g>
	<path style="fill:#22A1D3;" d="M291.01,46.77v48.46h-25v-40.47H134.47v40.47h-25V46.77c0-9.39,7.62-17.01,17.01-17.01H274
		C283.39,29.76,291.01,37.38,291.01,46.77z"/>
	<path style="fill:#22A1D3;" d="M291.01,46.77v48.46h-17.73v-47.95H127.2v47.95h-17.73V46.77c0-9.39,7.62-17.01,17.01-17.01H274
		C283.39,29.76,291.01,37.38,291.01,46.77z"/>
	<polygon style="fill:#1691B7;" points="266.01,54.759 273.28,47.279 127.2,47.279 127.2,95.23 134.47,95.23 134.47,54.759 	"/>
	<polygon style="fill:#60C3E2;" points="273.28,47.279 273.28,95.23 266.01,95.23 266.01,54.759 	"/>
	<polyline style="fill:#1691B7;" points="400.48,370.721 0,370.721 0,93.234 400.48,93.234 400.48,370.721 	"/>
	<polyline style="fill:#22A1D3;" points="10,360.721 10,103.235 390.48,103.235 390.48,360.721 10,360.721 	"/>
	<polygon style="fill:#60C3E2;" points="400.48,93.234 390.48,103.234 10,103.234 10,360.721 0,370.721 0,93.234 	"/>
	<path style="fill:#FFFFFF;" d="M270.948,302.685c-38.99,38.99-102.425,38.983-141.414-0.007c-38.99-38.99-38.99-102.418,0-141.407
		c38.99-38.99,102.424-38.997,141.414-0.007S309.938,263.695,270.948,302.685"/>
	<path style="fill:#E6E6E6;" d="M270.948,302.685c-38.99,38.99-102.425,38.983-141.414-0.007l141.414-141.414
		C309.938,200.253,309.938,263.695,270.948,302.685"/>
	<path style="fill:#F2F2F2;" d="M263.88,295.609c-24.39,24.39-59.3,31.86-90.13,22.38c-13.6-4.16-26.4-11.62-37.15-22.38
		c-35.14-35.15-35.14-92.13,0-127.27c26.23-26.23,64.62-32.89,97.02-19.96c11.02,4.39,21.34,11.04,30.26,19.96
		C299.02,203.479,299.02,260.459,263.88,295.609"/>
	<polyline style="fill:#FF5069;" points="267.928,208.434 267.928,255.516 223.784,255.516 223.784,299.665 176.697,299.665 
		176.697,255.516 132.552,255.516 132.552,208.434 176.697,208.434 176.697,164.288 223.784,164.288 223.784,208.434 
		267.928,208.434 	"/>
	<path style="fill:#F6F6F6;" d="M233.62,148.378l-9.836,27.865v32.189h44.144v47.084h-44.144v44.148h-43.566l-6.468,18.324
		c8.624,2.652,17.566,3.977,26.509,3.977c23.027,0,46.054-8.79,63.621-26.357c17.57-17.575,26.355-40.608,26.355-63.639
		s-8.785-46.061-26.355-63.631c-0.001-0.001-0.003-0.003-0.004-0.004C254.957,159.417,244.638,152.768,233.62,148.378
		L233.62,148.378"/>
	<polyline style="fill:#FF8697;" points="223.784,176.244 180.218,299.665 223.784,299.665 223.784,255.516 267.928,255.516 
		267.928,208.434 223.784,208.434 223.784,176.244 	"/>
</g>
<g>
</g>
<g>
</g>
<g>
</g>
<g>
</g>
<g>
</g>
<g>
</g>
<g>
</g>
<g>
</g>
<g>
</g>
<g>
</g>
<g>
</g>
<g>
</g>
<g>
</g>
<g>
</g>
<g>
</g>
</svg>
