<?xml version="1.0" encoding="iso-8859-1"?>
<!-- Generator: Adobe Illustrator 19.0.0, SVG Export Plug-In . SVG Version: 6.00 Build 0)  -->
<svg version="1.1" id="Capa_1" xmlns="http://www.w3.org/2000/svg" xmlns:xlink="http://www.w3.org/1999/xlink" x="0px" y="0px"
	 viewBox="0 0 512 512" style="enable-background:new 0 0 512 512;" xml:space="preserve">
<circle style="fill:#00BB6C;" cx="256" cy="256" r="256"/>
<path style="fill:#008F4E;" d="M507.943,210.379l-65.036-65.036h-33.502l-70.761-70.761h-165.04v70.761H69.34v249.608
	l103.081,103.081C198.616,507.075,226.731,512,256,512c141.385,0,256-114.615,256-256C512,240.428,510.607,225.183,507.943,210.379z
	"/>
<path style="fill:#7A7982;" d="M338.644,208.76h-165.04V74.581h165.039V208.76H338.644z M212.561,169.804h87.126v-56.267h-87.126
	L212.561,169.804L212.561,169.804z"/>
<polygon style="fill:#3C3C40;" points="254.171,113.538 299.687,113.538 299.687,169.804 254.171,169.804 254.171,208.76 
	338.644,208.76 338.644,74.581 254.171,74.581 "/>
<rect x="69.341" y="145.348" style="fill:#FFFFFF;" width="373.569" height="249.605"/>
<rect x="254.173" y="145.348" style="fill:#B0E3E5;" width="188.737" height="249.605"/>
<g>
	<rect x="225.23" y="210.854" style="fill:#DE220E;" width="57.878" height="114.648"/>
	<rect x="196.849" y="239.235" style="fill:#DE220E;" width="114.648" height="57.878"/>
</g>
<polygon style="fill:#941409;" points="283.11,210.853 254.171,210.853 254.171,325.496 283.11,325.496 283.11,297.114 
	311.493,297.114 311.493,239.236 283.11,239.236 "/>
<g>
</g>
<g>
</g>
<g>
</g>
<g>
</g>
<g>
</g>
<g>
</g>
<g>
</g>
<g>
</g>
<g>
</g>
<g>
</g>
<g>
</g>
<g>
</g>
<g>
</g>
<g>
</g>
<g>
</g>
</svg>
