<?xml version="1.0" encoding="iso-8859-1"?>
<!-- Generator: Adobe Illustrator 19.0.0, SVG Export Plug-In . SVG Version: 6.00 Build 0)  -->
<svg version="1.1" id="Capa_1" xmlns="http://www.w3.org/2000/svg" xmlns:xlink="http://www.w3.org/1999/xlink" x="0px" y="0px"
	 viewBox="0 0 384 384" style="enable-background:new 0 0 384 384;" xml:space="preserve">
<circle style="fill:#E05B49;" cx="192" cy="192" r="192"/>
<path style="opacity:0.1;enable-background:new    ;" d="M382.106,218.736L299.36,135.99c-1.76-1.84-4.2-2.96-6.88-2.96h-8.68
	l-2.12-2.12c-0.36-0.36-0.88-0.6-1.44-0.6h-8.12l-29.32-29.28l-0.12-0.12c-2.4-2.72-5.92-4.4-9.84-4.4h-81.68
	c-7.32,0-13.32,5.96-13.32,13.28v23.24h-16.52l-1.88-1.84l-0.12-0.16l-0.24-0.24c-0.36-0.32-0.8-0.48-1.28-0.48h-13.64
	c-1.08,0-2,0.88-2,2v0.72H91.52c-5.24,0-9.52,4.24-9.52,9.519v135.44c0,2.28,0.8,4.32,2.16,5.96l0.04,0.08l1.28,1.28l0.2,0.16
	l98.328,98.329C186.662,383.907,189.32,384,192,384C288.962,384,369.09,312.112,382.106,218.736z"/>
<path style="fill:#DC8744;" d="M292.484,137.029H91.518c-5.256,0-9.518,4.261-9.518,9.517v131.437c0,5.256,4.262,9.517,9.518,9.517
	h200.966c5.256,0,9.516-4.261,9.516-9.517V146.546C302,141.29,297.739,137.029,292.484,137.029z"/>
<path style="fill:#FCD462;" d="M292.484,133.029H91.518c-5.256,0-9.518,4.261-9.518,9.517v131.437c0,5.256,4.262,9.517,9.518,9.517
	h200.966c5.256,0,9.516-4.261,9.516-9.517V142.546C302,137.29,297.739,133.029,292.484,133.029z"/>
<path style="fill:#3A556A;" d="M149.851,133.029v-23.22c0-0.723,0.586-1.308,1.309-1.308h81.68c0.722,0,1.308,0.586,1.308,1.308
	v23.22h12v-23.22c0-7.34-5.969-13.308-13.308-13.308h-81.68c-7.34,0-13.309,5.968-13.309,13.308v23.22H149.851z"/>
<path style="fill:#E56353;" d="M154.15,208.264c0,20.904,16.946,37.85,37.85,37.85v-75.7
	C171.096,170.414,154.15,187.36,154.15,208.264z"/>
<path style="fill:#D15241;" d="M192,170.414v75.7c20.904,0,37.85-16.946,37.85-37.85S212.904,170.414,192,170.414z"/>
<polygon style="fill:#CE412D;" points="214.813,202.446 199.195,202.446 199.195,186.828 184.805,186.828 184.805,202.446 
	169.187,202.446 169.187,216.836 184.805,216.836 184.805,232.454 199.195,232.454 199.195,216.836 214.813,216.836 "/>
<polygon style="fill:#FFFFFF;" points="214.813,199.693 199.195,199.693 199.195,184.075 184.805,184.075 184.805,199.693 
	169.187,199.693 169.187,214.083 184.805,214.083 184.805,229.701 199.195,229.701 199.195,214.083 214.813,214.083 "/>
<g>
	<path style="fill:#64798A;" d="M117.79,130.293h-13.616c-1.108,0-2.008,0.899-2.008,2.008v20.132c0,1.108,0.9,2.008,2.008,2.008
		h13.616c1.108,0,2.008-0.899,2.008-2.008V132.3C119.798,131.192,118.898,130.293,117.79,130.293z"/>
	<path style="fill:#64798A;" d="M280.23,130.293h-13.616c-1.108,0-2.008,0.899-2.008,2.008v20.132c0,1.108,0.899,2.008,2.008,2.008
		h13.616c1.108,0,2.008-0.899,2.008-2.008V132.3C282.238,131.192,281.338,130.293,280.23,130.293z"/>
</g>
<g>
	<rect x="106.168" y="142.368" style="fill:#3A556A;" width="9.628" height="8.08"/>
	<rect x="268.6" y="142.368" style="fill:#3A556A;" width="9.628" height="8.08"/>
</g>
<g>
</g>
<g>
</g>
<g>
</g>
<g>
</g>
<g>
</g>
<g>
</g>
<g>
</g>
<g>
</g>
<g>
</g>
<g>
</g>
<g>
</g>
<g>
</g>
<g>
</g>
<g>
</g>
<g>
</g>
</svg>
