<?xml version="1.0" encoding="iso-8859-1"?>
<!DOCTYPE svg PUBLIC "-//W3C//DTD SVG 1.1//EN" "http://www.w3.org/Graphics/SVG/1.1/DTD/svg11.dtd">
<svg xmlns="http://www.w3.org/2000/svg" xmlns:xlink="http://www.w3.org/1999/xlink" version="1.1" viewBox="0 0 297 297" enable-background="new 0 0 297 297" width="512px" height="512px">
  <g>
    <path d="m148.5,73.818c12.234,0 22.187-9.953 22.187-22.187s-9.953-22.187-22.187-22.187-22.187,9.953-22.187,22.187 9.953,22.187 22.187,22.187zm0-29.572c4.072,0 7.386,3.314 7.386,7.386s-3.314,7.386-7.386,7.386-7.386-3.314-7.386-7.386 3.314-7.386 7.386-7.386z" fill="#FFFFFF"/>
    <path d="m229.904,177.575c-12.234,0-22.187,9.953-22.187,22.187s9.953,22.187 22.187,22.187 22.187-9.953 22.187-22.187-9.954-22.187-22.187-22.187zm0,29.573c-4.072,0-7.386-3.314-7.386-7.386 0-4.072 3.314-7.386 7.386-7.386s7.386,3.314 7.386,7.386c0,4.072-3.314,7.386-7.386,7.386z" fill="#FFFFFF"/>
    <path d="m229.904,155.469c-17.876,0-34.129,7.041-46.167,18.478l-26.849-13.425v-19.534c33.05-4.143 58.709-32.399 58.709-66.553 0-36.997-30.1-67.096-67.096-67.096s-67.096,30.1-67.096,67.096c0,34.155 25.659,62.411 58.709,66.553v19.534l-26.849,13.424c-12.038-11.437-28.291-18.478-46.167-18.478-36.998,0.001-67.098,30.1-67.098,67.097s30.1,67.096 67.096,67.096 67.096-30.1 67.096-67.096c0-12.942-3.694-25.034-10.067-35.295l24.375-12.187 24.375,12.187c-6.374,10.261-10.067,22.352-10.067,35.295 0,36.997 30.1,67.096 67.096,67.096s67.096-30.099 67.096-67.096-30.099-67.096-67.096-67.096zm-180.431,114.226v-23.51c-1.42109e-14-2.113 1.333-3.984 3.322-4.678l1.561-.479 9.562,4.547c2.01,0.956 4.346,0.956 6.356,0l9.562-4.547 1.561,.479c1.99,0.694 3.322,2.565 3.322,4.678v23.51c-5.488,2.059-11.425,3.192-17.623,3.192-6.198,0-12.135-1.133-17.623-3.192zm50.047-8.688v-14.821c0-8.517-5.429-16.049-13.509-18.742-0.056-0.018-4.583-1.409-4.583-1.409-1.768-0.543-3.678-0.404-5.349,0.391l-8.983,4.272-8.983-4.272c-1.671-0.795-3.581-0.935-5.349-0.391 0,0-4.527,1.39-4.583,1.409-8.081,2.693-13.509,10.225-13.509,18.742v14.821c-10.936-9.238-17.899-23.039-17.899-38.442 0-27.747 22.575-50.322 50.322-50.322s50.322,22.575 50.322,50.322c0.002,15.402-6.961,29.203-17.897,38.442zm31.357-139.442v-23.51c0-2.113 1.333-3.984 3.322-4.678l1.561-.479 9.562,4.546c2.012,0.956 4.344,0.956 6.356,0l9.562-4.546 1.561,.479c1.99,0.694 3.322,2.565 3.322,4.678v23.51c-5.488,2.059-11.425,3.192-17.623,3.192s-12.135-1.133-17.623-3.192zm-32.699-47.13c0-27.747 22.575-50.322 50.322-50.322s50.322,22.575 50.322,50.322c0,15.402-6.963,29.203-17.899,38.442v-14.822c0-8.517-5.429-16.049-13.509-18.742-0.056-0.018-4.583-1.409-4.583-1.409-1.768-0.542-3.676-0.404-5.349,0.391l-8.983,4.271-8.983-4.271c-1.672-0.795-3.582-0.934-5.349-0.391 0,0-4.527,1.39-4.583,1.409-8.081,2.693-13.509,10.225-13.509,18.742v14.821c-10.934-9.238-17.897-23.039-17.897-38.441zm114.103,195.26v-23.51c0-2.113 1.333-3.984 3.322-4.678l1.561-.479 9.562,4.547c2.01,0.956 4.346,0.956 6.356,0l9.562-4.547 1.561,.479c1.99,0.694 3.322,2.565 3.322,4.678v23.51c-5.488,2.059-11.425,3.192-17.623,3.192s-12.135-1.133-17.623-3.192zm50.046-8.688v-14.821c0-8.517-5.429-16.049-13.509-18.742-0.056-0.018-4.583-1.409-4.583-1.409-1.769-0.543-3.677-0.404-5.349,0.391l-8.983,4.272-8.983-4.272c-1.672-0.795-3.58-0.935-5.349-0.391 0,0-4.527,1.39-4.583,1.409-8.081,2.693-13.509,10.225-13.509,18.742v14.821c-10.936-9.238-17.899-23.039-17.899-38.442 0-27.747 22.575-50.322 50.322-50.322s50.322,22.575 50.322,50.322c0.002,15.402-6.961,29.203-17.897,38.442z" fill="#FFFFFF"/>
    <path d="m67.096,177.575c-12.234,0-22.187,9.953-22.187,22.187s9.953,22.187 22.187,22.187 22.187-9.953 22.187-22.187-9.953-22.187-22.187-22.187zm0,29.573c-4.072,0-7.386-3.314-7.386-7.386 0-4.072 3.314-7.386 7.386-7.386s7.386,3.314 7.386,7.386c0,4.072-3.314,7.386-7.386,7.386z" fill="#FFFFFF"/>
  </g>
</svg>
